<?xml version="1.0" standalone="no"?><!-- Generator: Gravit.io --><svg xmlns="http://www.w3.org/2000/svg" xmlns:xlink="http://www.w3.org/1999/xlink" style="isolation:isolate" viewBox="0 0 448 448" width="448" height="448"><defs><clipPath id="_clipPath_yOren7NiAwBvYwpkzn2xavEBtpCnjpMx"><rect width="448" height="448"/></clipPath></defs><g clip-path="url(#_clipPath_yOren7NiAwBvYwpkzn2xavEBtpCnjpMx)"><path d=" M 408 184 L 272 184 C 267.582 184 264 180.418 264 176 L 264 40 C 264 17.91 246.09 0 224 0 C 201.91 0 184 17.91 184 40 L 184 176 C 184 180.418 180.418 184 176 184 L 40 184 C 17.91 184 0 201.91 0 224 C 0 246.09 17.91 264 40 264 L 176 264 C 180.418 264 184 267.582 184 272 L 184 408 C 184 430.09 201.91 448 224 448 C 246.09 448 264 430.09 264 408 L 264 272 C 264 267.582 267.582 264 272 264 L 408 264 C 430.09 264 448 246.09 448 224 C 448 201.91 430.09 184 408 184 Z " fill="rgb(48,73,155)"/></g></svg>