<?xml version="1.0" standalone="no"?><!-- Generator: Gravit.io --><svg xmlns="http://www.w3.org/2000/svg" xmlns:xlink="http://www.w3.org/1999/xlink" style="isolation:isolate" viewBox="0 0 455 455" width="455" height="455"><defs><clipPath id="_clipPath_uvVy4d51X8tA7tJ1QgUq1A565PamTna2"><rect width="455" height="455"/></clipPath></defs><g clip-path="url(#_clipPath_uvVy4d51X8tA7tJ1QgUq1A565PamTna2)"><g><path d=" M 55 98.788 L 19.723 98.788 L 19.723 128.788 L 55 128.788 L 55 212.5 L 15 212.5 L 15 242.5 L 55 242.5 L 55 326.212 L 15 326.212 L 15 356.212 L 55 356.212 L 55 455 L 125 455 L 125 0 L 55 0 L 55 98.788 Z " fill="rgb(48,73,155)"/><path d=" M 155 0 L 155 455 L 440 455 L 440 0 L 155 0 L 155 0 Z  M 297.5 135.862 C 321.877 135.862 341.638 155.623 341.638 180 C 341.638 204.377 321.877 224.138 297.5 224.138 C 273.123 224.138 253.362 204.377 253.362 180 C 253.362 155.623 273.123 135.862 297.5 135.862 Z  M 217.5 319.138 C 217.5 274.955 253.317 239.138 297.5 239.138 C 341.683 239.138 377.5 274.955 377.5 319.138 L 217.5 319.138 L 217.5 319.138 Z " fill="rgb(48,73,155)"/></g></g></svg>