<?xml version="1.0" standalone="no"?><!-- Generator: Gravit.io --><svg xmlns="http://www.w3.org/2000/svg" xmlns:xlink="http://www.w3.org/1999/xlink" style="isolation:isolate" viewBox="0 0 455 455" width="455" height="455"><defs><clipPath id="_clipPath_b3O4F7siBWVd5IWPy0Dx6PUGbwAzX6ap"><rect width="455" height="455"/></clipPath></defs><g clip-path="url(#_clipPath_b3O4F7siBWVd5IWPy0Dx6PUGbwAzX6ap)"><path d=" M 227.5 0 C 101.855 0 0 101.855 0 227.5 C 0 275.051 14.598 319.188 39.544 355.693 L 9.662 445.338 L 99.308 415.457 C 135.812 440.403 179.949 455 227.5 455 C 353.145 455 455 353.145 455 227.5 C 455 101.855 353.145 0 227.5 0 Z  M 147.5 242.5 C 139.216 242.5 132.5 235.784 132.5 227.5 C 132.5 219.216 139.216 212.5 147.5 212.5 C 155.784 212.5 162.5 219.216 162.5 227.5 C 162.5 235.784 155.784 242.5 147.5 242.5 Z  M 227.5 242.5 C 219.216 242.5 212.5 235.784 212.5 227.5 C 212.5 219.216 219.216 212.5 227.5 212.5 C 235.784 212.5 242.5 219.216 242.5 227.5 C 242.5 235.784 235.784 242.5 227.5 242.5 Z  M 307.5 242.5 C 299.216 242.5 292.5 235.784 292.5 227.5 C 292.5 219.216 299.216 212.5 307.5 212.5 C 315.784 212.5 322.5 219.216 322.5 227.5 C 322.5 235.784 315.784 242.5 307.5 242.5 Z " fill="rgb(48,73,155)"/></g></svg>